<svg width="144" height="54" viewBox="0 0 144 54" fill="none" xmlns="http://www.w3.org/2000/svg">
<g clip-path="url(#clip0_8_70)">
<path d="M143.973 1.13456C143.953 1.07344 143.92 1.0179 143.881 0.966245C143.876 0.959664 143.875 0.951552 143.869 0.945148C143.862 0.935613 143.85 0.931308 143.842 0.922414C143.827 0.90619 143.815 0.887405 143.798 0.872854C143.777 0.855278 143.753 0.844605 143.731 0.830409C143.716 0.820519 143.701 0.809418 143.685 0.801164C143.629 0.772346 143.569 0.751213 143.507 0.742852C143.502 0.742176 143.497 0.743386 143.492 0.742852C143.435 0.736733 143.378 0.740753 143.321 0.75228C143.302 0.756123 143.284 0.762562 143.265 0.768468C143.244 0.775264 143.221 0.777896 143.2 0.787467L104.34 18.3817C104.112 18.4847 103.976 18.7261 104.004 18.9788C104.031 19.2316 104.216 19.4365 104.46 19.486L115.402 21.7089L119.336 33.0062C119.336 33.0072 119.337 33.0079 119.337 33.0089C119.34 33.0148 119.344 33.0197 119.346 33.0255C119.37 33.0866 119.404 33.1406 119.445 33.1886C119.45 33.1948 119.451 33.2028 119.457 33.2088C119.466 33.2187 119.478 33.222 119.488 33.2311C119.527 33.2688 119.571 33.2998 119.619 33.3248C119.637 33.3341 119.654 33.3447 119.672 33.352C119.736 33.3769 119.803 33.3938 119.874 33.3938C119.874 33.3938 119.874 33.3938 119.874 33.3938C119.881 33.3938 119.889 33.3938 119.896 33.3933C119.959 33.391 120.02 33.3776 120.077 33.3555C120.086 33.352 120.093 33.345 120.102 33.341C120.155 33.3173 120.204 33.2864 120.248 33.2478C120.253 33.2431 120.26 33.2416 120.265 33.2367L129.484 24.4574L137.542 26.2413C137.844 26.3079 138.146 26.116 138.219 25.8081L143.987 1.4569C143.993 1.43239 143.992 1.4078 143.994 1.38315C143.997 1.36361 144 1.34508 144 1.32547C144.001 1.26094 143.994 1.19711 143.974 1.13663C143.974 1.13588 143.974 1.13528 143.973 1.13456ZM106.45 18.7016L138.383 4.24432L115.703 20.5813L106.45 18.7016ZM119.805 30.8692L116.516 21.4227L138.207 5.79796L122.287 21.944C122.279 21.9528 122.276 21.9645 122.268 21.9737C122.241 22.0047 122.221 22.0398 122.2 22.0768C122.183 22.1082 122.166 22.1379 122.154 22.1714C122.151 22.1828 122.142 22.1912 122.139 22.203L119.805 30.8692ZM120.96 30.9796L123.098 23.0438L128.125 24.1567L120.96 30.9796ZM137.239 24.981L123.838 22.0148L142.402 3.1868L137.239 24.981Z" fill="#696969"/>
<path d="M115.731 35.0421C116.078 34.8766 116.37 34.7843 116.608 34.7653C116.841 34.7366 117.039 34.784 117.201 34.9074C117.363 35.0308 117.509 35.2331 117.638 35.5142C117.803 35.8729 117.798 36.1824 117.624 36.4427C117.446 36.6934 117.092 36.9452 116.563 37.198L114.585 38.1428C113.805 38.5152 113.26 38.3621 112.948 37.6835C112.619 36.9662 112.878 36.4052 113.725 36.0007L115.731 35.0421Z" fill="#696969"/>
<path d="M108.776 36.9942C109.159 37.0209 109.46 37.0846 109.677 37.1853C109.896 37.2753 110.047 37.4142 110.13 37.6018C110.214 37.7894 110.246 38.0375 110.225 38.3461C110.199 38.7399 110.047 39.0074 109.77 39.1485C109.494 39.2789 109.064 39.3238 108.478 39.283L106.292 39.1307C105.43 39.0706 105.024 38.6681 105.074 37.9231C105.126 37.1356 105.621 36.7744 106.557 36.8396L108.776 36.9942Z" fill="#696969"/>
<path d="M102.115 36.6346C102.47 36.7799 102.736 36.9346 102.912 37.0988C103.092 37.253 103.194 37.4327 103.216 37.6378C103.239 37.8429 103.193 38.0894 103.08 38.3773C102.936 38.7446 102.711 38.9523 102.406 39.0004C102.104 39.0385 101.682 38.9466 101.139 38.7247L99.11 37.8955C98.3102 37.5686 98.0468 37.0577 98.3198 36.3627C98.6084 35.628 99.1871 35.4382 100.056 35.7933L102.115 36.6346Z" fill="#696969"/>
</g>
<path d="M3.22656 20.916C3.22656 20.679 3.29948 20.474 3.44531 20.3008C3.60026 20.1276 3.78255 20.041 3.99219 20.041H15.0938C15.3307 20.041 15.5085 20.1185 15.627 20.2734C15.7546 20.4193 15.8184 20.6016 15.8184 20.8203V22.3105C15.8184 22.5202 15.7546 22.7025 15.627 22.8574C15.5085 23.0033 15.3307 23.0762 15.0938 23.0762H6.6582V29.8711H13.4531C13.6901 29.8711 13.8678 29.9486 13.9863 30.1035C14.1139 30.2585 14.1777 30.4408 14.1777 30.6504V32.127C14.1777 32.3366 14.1139 32.5189 13.9863 32.6738C13.8678 32.8197 13.6901 32.8926 13.4531 32.8926H6.64453V40.125C6.64453 40.362 6.56706 40.5671 6.41211 40.7402C6.26628 40.9134 6.08854 41 5.87891 41H3.97852C3.76888 41 3.59115 40.9134 3.44531 40.7402C3.29948 40.5671 3.22656 40.362 3.22656 40.125V20.916ZM31.1855 40.2754C31.1855 40.7585 30.9486 41 30.4746 41H29.1484C28.793 41 28.5788 40.9316 28.5059 40.7949C28.4329 40.6491 28.3919 40.5215 28.3828 40.4121C28.3737 40.2936 28.3555 40.1523 28.3281 39.9883C28.2734 39.5417 28.196 39.0586 28.0957 38.5391C27.3848 39.8424 26.2682 40.7038 24.7461 41.123C24.2083 41.2689 23.6159 41.3418 22.9688 41.3418C22.3216 41.3418 21.6745 41.2324 21.0273 41.0137C20.3802 40.804 19.806 40.4896 19.3047 40.0703C18.1745 39.1224 17.6094 37.8783 17.6094 36.3379C17.6094 34.6517 18.2292 33.362 19.4688 32.4688C20.4896 31.7487 21.8021 31.3887 23.4062 31.3887C25.0104 31.3887 26.3685 31.8581 27.4805 32.7969C27.5078 32.487 27.5215 32.0996 27.5215 31.6348C27.5215 31.1699 27.4303 30.7051 27.248 30.2402C27.0658 29.7754 26.806 29.388 26.4688 29.0781C25.776 28.4674 24.8099 28.1621 23.5703 28.1621C22.4583 28.1621 21.3281 28.4674 20.1797 29.0781C19.9609 29.1966 19.7695 29.2559 19.6055 29.2559C19.3594 29.2559 19.1224 29.0143 18.8945 28.5312C18.6484 28.0391 18.5254 27.6836 18.5254 27.4648C18.5254 27.0638 18.8262 26.6764 19.4277 26.3027C20.5762 25.5918 22.112 25.2363 24.0352 25.2363C25.7852 25.2363 27.2344 25.7148 28.3828 26.6719C29.7409 27.8203 30.4199 29.4427 30.4199 31.5391C30.4199 32.4688 30.2695 33.64 29.9688 35.0527C30.7435 37.2585 31.1491 38.9993 31.1855 40.2754ZM22.0254 34.4785C21.6517 34.752 21.3828 35.0254 21.2188 35.2988C21.0638 35.5723 20.9863 35.8958 20.9863 36.2695C20.9863 36.6341 21.0501 36.9622 21.1777 37.2539C21.3145 37.5365 21.5013 37.7734 21.7383 37.9648C22.2396 38.3568 22.8001 38.5527 23.4199 38.5527C24.0488 38.5527 24.5638 38.4798 24.9648 38.334C25.3659 38.1882 25.7122 38.0013 26.0039 37.7734C26.6328 37.2812 26.9473 36.7617 26.9473 36.2148C26.8926 35.5312 26.5143 34.9935 25.8125 34.6016C25.1836 34.237 24.4408 34.0547 23.584 34.0547C22.9186 34.0547 22.3991 34.196 22.0254 34.4785ZM39.416 38.5391C41.166 38.5391 42.041 37.9512 42.041 36.7754C42.041 36.1283 41.5443 35.5814 40.5508 35.1348C40.1315 34.9434 39.6712 34.7656 39.1699 34.6016C38.6777 34.4375 38.2038 34.2415 37.748 34.0137C37.2923 33.7858 36.8639 33.5397 36.4629 33.2754C36.071 33.002 35.7292 32.6921 35.4375 32.3457C34.8359 31.6165 34.5352 30.6914 34.5352 29.5703C34.5352 28.2031 35.1048 27.1185 36.2441 26.3164C37.2559 25.5964 38.5 25.2363 39.9766 25.2363C41.5625 25.2363 42.8887 25.5462 43.9551 26.166C44.3197 26.3848 44.502 26.6354 44.502 26.918C44.502 27.319 44.3926 27.7611 44.1738 28.2441C43.9642 28.7181 43.7135 28.9551 43.4219 28.9551C43.1393 28.9551 42.8796 28.8958 42.6426 28.7773C42.4147 28.6589 42.2051 28.5586 42.0137 28.4766C41.8314 28.3854 41.6354 28.3125 41.4258 28.2578C40.9701 28.1211 40.5462 28.0527 40.1543 28.0527C39.7715 28.0527 39.4616 28.0801 39.2246 28.1348C38.9876 28.1895 38.7734 28.276 38.582 28.3945C38.1172 28.6771 37.8848 29.0234 37.8848 29.4336C37.8848 29.8438 37.9759 30.1582 38.1582 30.377C38.3496 30.5957 38.6094 30.7962 38.9375 30.9785C39.2656 31.1608 39.6576 31.3431 40.1133 31.5254L41.5898 32.1406C42.7839 32.6602 43.5905 33.1296 44.0098 33.5488C44.8301 34.3874 45.2402 35.3581 45.2402 36.4609C45.2402 37.8464 44.7663 38.9857 43.8184 39.8789C42.7702 40.8542 41.2799 41.3418 39.3477 41.3418C37.388 41.3418 35.916 40.9635 34.9316 40.207C34.4486 39.8424 34.207 39.5143 34.207 39.2227C34.207 38.931 34.2572 38.6712 34.3574 38.4434C34.4668 38.2064 34.6035 37.9329 34.7676 37.623C34.9408 37.304 35.1686 37.1445 35.4512 37.1445C35.7428 37.1445 36.0482 37.2767 36.3672 37.541C36.6953 37.7962 37.1419 38.0286 37.707 38.2383C38.2721 38.4388 38.8418 38.5391 39.416 38.5391ZM57.4902 27.6562C57.4902 28.1667 57.2031 28.4219 56.6289 28.4219H52.7734V37.0078C52.7734 37.9375 53.2337 38.4023 54.1543 38.4023C54.7376 38.4023 55.4987 38.1107 56.4375 37.5273C56.6198 37.4089 56.8158 37.3496 57.0254 37.3496C57.2441 37.3496 57.4173 37.5 57.5449 37.8008L57.8594 38.5117C57.9779 38.7852 58.0371 39.0176 58.0371 39.209C58.0371 39.4004 57.8913 39.6237 57.5996 39.8789C57.3171 40.125 56.9525 40.3483 56.5059 40.5488C55.4941 41.0046 54.5781 41.2324 53.7578 41.2324C52.9375 41.2324 52.2858 41.1504 51.8027 40.9863C51.3288 40.8132 50.9232 40.5579 50.5859 40.2207C49.8568 39.5098 49.4922 38.4844 49.4922 37.1445V28.4219H48.3438C47.7695 28.4219 47.4824 28.1621 47.4824 27.6426V26.8633C47.4824 26.6536 47.5371 26.4896 47.6465 26.3711C47.7559 26.2526 47.9701 26.1615 48.2891 26.0977L49.6562 25.7012L50.1758 22.4883C50.276 21.8867 50.5221 21.5859 50.9141 21.5859H52.0488C52.2585 21.5859 52.4316 21.6725 52.5684 21.8457C52.7051 22.0098 52.7734 22.224 52.7734 22.4883V25.5781H56.6289C57.2031 25.5781 57.4902 25.8288 57.4902 26.3301V27.6562ZM62.8945 40.125C62.8945 40.1042 62.8945 40.0521 62.8945 39.9688C62.8945 39.8854 62.9049 39.8333 62.9258 39.8125L66.1758 29.8125L61.207 30.1562L61.6758 28.6875L67.0195 27.9375L71.332 20.625C71.2695 20.625 71.1445 20.625 70.957 20.625C70.7904 20.625 70.6133 20.625 70.4258 20.625C70.2383 20.6042 70.0508 20.5938 69.8633 20.5938C69.6966 20.5938 69.582 20.5938 69.5195 20.5938C68.707 20.5938 67.8945 20.625 67.082 20.6875C66.2904 20.75 65.4883 20.8229 64.6758 20.9062C63.8633 20.9896 63.0508 21.0625 62.2383 21.125C61.4466 21.1875 60.6445 21.2188 59.832 21.2188C59.582 21.2188 59.3633 21.1979 59.1758 21.1562C58.9883 21.1146 58.832 20.9375 58.707 20.625L59.332 20C59.332 20 59.5404 19.9792 59.957 19.9375C60.3945 19.8958 60.957 19.8438 61.6445 19.7812C62.332 19.6979 63.1133 19.6146 63.9883 19.5312C64.8633 19.4479 65.7383 19.3646 66.6133 19.2812C67.5091 19.1771 68.3633 19.0938 69.1758 19.0312C70.0091 18.9479 70.7279 18.875 71.332 18.8125C71.3529 18.8125 71.4466 18.8125 71.6133 18.8125C71.8008 18.7917 71.9258 18.7812 71.9883 18.7812C72.0508 18.7812 72.1549 18.7812 72.3008 18.7812C72.4466 18.7812 72.5924 18.8021 72.7383 18.8438C72.8841 18.8854 72.9987 18.9479 73.082 19.0312C73.1862 19.1146 73.1966 19.2396 73.1133 19.4062L69.2695 27.8125H73.3945C73.5404 28.1458 73.5612 28.4167 73.457 28.625C73.3529 28.8333 73.1758 29 72.9258 29.125C72.6758 29.25 72.3529 29.3438 71.957 29.4062C71.582 29.4479 71.1862 29.4896 70.7695 29.5312C70.3529 29.5729 69.9466 29.6146 69.5508 29.6562C69.1549 29.6979 68.8112 29.75 68.5195 29.8125C68.1237 30.5 67.7279 31.2292 67.332 32C66.9362 32.7708 66.5612 33.5521 66.207 34.3438C65.8737 35.1354 65.5716 35.9479 65.3008 36.7812C65.0508 37.5938 64.8529 38.3958 64.707 39.1875C64.7487 39.1875 64.832 39.1979 64.957 39.2188C65.082 39.2188 65.207 39.2292 65.332 39.25C65.457 39.25 65.5716 39.25 65.6758 39.25C65.8008 39.25 65.8841 39.25 65.9258 39.25C66.9466 39.25 67.9466 39.1667 68.9258 39C69.9049 38.8333 70.8841 38.6562 71.8633 38.4688C72.8633 38.2812 73.8529 38.1042 74.832 37.9375C75.832 37.7708 76.8633 37.6875 77.9258 37.6875V38.9062C76.7591 38.9062 75.6133 39.0208 74.4883 39.25C73.3633 39.4583 72.2383 39.6979 71.1133 39.9688C70.0091 40.2396 68.8945 40.4896 67.7695 40.7188C66.6654 40.9271 65.5404 41.0312 64.3945 41.0312C64.2695 41.0312 64.1133 41.0208 63.9258 41C63.7383 40.9583 63.5716 40.9062 63.4258 40.8438C63.2799 40.7604 63.1549 40.6667 63.0508 40.5625C62.9466 40.4583 62.8945 40.3125 62.8945 40.125ZM84.457 21.5312C85.2279 21.5312 85.8945 21.7604 86.457 22.2188C87.0404 22.6562 87.5404 23.25 87.957 24C88.3945 24.75 88.7591 25.6146 89.0508 26.5938C89.3424 27.5729 89.582 28.6042 89.7695 29.6875C89.957 30.75 90.1029 31.8333 90.207 32.9375C90.3112 34.0208 90.3841 35.0417 90.4258 36C90.4674 36.9583 90.4883 37.8229 90.4883 38.5938C90.5091 39.3646 90.5195 39.9688 90.5195 40.4062H89.7695L88.582 33.8125C88.4779 33.7083 88.2383 33.6458 87.8633 33.625C87.5091 33.6042 87.082 33.6146 86.582 33.6562C86.1029 33.6979 85.5716 33.7604 84.9883 33.8438C84.4258 33.9062 83.8841 33.9583 83.3633 34C82.8633 34.0208 82.4049 34.0312 81.9883 34.0312C81.5716 34.0104 81.2695 33.9375 81.082 33.8125V40.4062H79.4883C79.4883 40.3438 79.4883 40.2292 79.4883 40.0625C79.5091 39.875 79.5195 39.6875 79.5195 39.5C79.5195 39.3125 79.5299 39.1354 79.5508 38.9688C79.5716 38.8021 79.582 38.6875 79.582 38.625C79.707 37.4167 79.8008 36.1979 79.8633 34.9688C79.9466 33.7188 80.0404 32.5104 80.1445 31.3438C80.2487 30.1771 80.3841 29.0625 80.5508 28C80.7383 26.9375 80.9987 25.9792 81.332 25.125C81.6654 24.25 82.082 23.5104 82.582 22.9062C83.082 22.2812 83.707 21.8229 84.457 21.5312ZM84.957 22.9688C84.4154 22.9688 83.957 23.1667 83.582 23.5625C83.2279 23.9375 82.9362 24.4375 82.707 25.0625C82.4779 25.6667 82.3008 26.3438 82.1758 27.0938C82.0508 27.8438 81.9674 28.5833 81.9258 29.3125C81.8841 30.0208 81.8529 30.6875 81.832 31.3125C81.832 31.9167 81.832 32.3854 81.832 32.7188C82.8529 32.7188 83.8945 32.6458 84.957 32.5C86.0195 32.3333 87.0195 32.1667 87.957 32C87.9779 31.9167 87.9883 31.7812 87.9883 31.5938C88.0091 31.4062 88.0195 31.1979 88.0195 30.9688C88.0404 30.7396 88.0508 30.5208 88.0508 30.3125C88.0716 30.1042 88.082 29.9688 88.082 29.9062C88.082 29.2188 88.0404 28.5625 87.957 27.9375C87.8945 27.3125 87.7487 26.7083 87.5195 26.125C87.3112 25.5208 86.9987 24.9583 86.582 24.4375C86.1862 23.9167 85.6445 23.4271 84.957 22.9688ZM91.8633 23.8125C91.8633 23.1458 92.1133 22.5729 92.6133 22.0938C93.1341 21.5938 93.7591 21.1979 94.4883 20.9062C95.2174 20.5938 95.9779 20.3646 96.7695 20.2188C97.5612 20.0521 98.2383 19.9688 98.8008 19.9688C99.3633 19.9688 99.9258 20.0625 100.488 20.25C101.072 20.4375 101.582 20.7083 102.02 21.0625C102.457 21.3958 102.79 21.8333 103.02 22.375C103.27 22.8958 103.353 23.5 103.27 24.1875C103.165 25.25 102.811 26.1875 102.207 27C101.624 27.8125 100.895 28.5 100.02 29.0625C99.1654 29.6042 98.2279 30.0208 97.207 30.3125C96.207 30.5833 95.2383 30.7188 94.3008 30.7188C94.3008 31.4896 94.332 32.2604 94.3945 33.0312C94.457 33.7812 94.5195 34.5417 94.582 35.3125C94.6654 36.0833 94.7383 36.8542 94.8008 37.625C94.8633 38.375 94.8945 39.1354 94.8945 39.9062C94.8945 40.1354 94.8737 40.3542 94.832 40.5625C94.7904 40.75 94.6029 40.8958 94.2695 41L93.6445 40.4062C93.6445 40.3854 93.6133 40.0938 93.5508 39.5312C93.4883 38.9688 93.3945 38.2396 93.2695 37.3438C93.1654 36.4479 93.0404 35.4375 92.8945 34.3125C92.7695 33.1667 92.6445 32.0208 92.5195 30.875C92.3945 29.7292 92.2695 28.625 92.1445 27.5625C92.0404 26.5 91.9466 25.5833 91.8633 24.8125C91.8633 24.7917 91.8633 24.7396 91.8633 24.6562C91.8633 24.5729 91.8633 24.4792 91.8633 24.375C91.8633 24.2708 91.8633 24.1667 91.8633 24.0625C91.8633 23.9583 91.8633 23.875 91.8633 23.8125ZM93.6133 24.9375C93.6133 25.375 93.6133 25.7812 93.6133 26.1562C93.6341 26.5312 93.6654 26.8958 93.707 27.25C93.7695 27.6042 93.8424 27.9688 93.9258 28.3438C94.0091 28.7188 94.1237 29.1458 94.2695 29.625C94.9154 29.5208 95.6862 29.3229 96.582 29.0312C97.4779 28.7396 98.332 28.3438 99.1445 27.8438C99.9779 27.3438 100.676 26.7708 101.238 26.125C101.801 25.4583 102.082 24.7188 102.082 23.9062C102.082 23.4688 101.978 23.0833 101.77 22.75C101.561 22.3958 101.29 22.1042 100.957 21.875C100.645 21.6458 100.29 21.4688 99.8945 21.3438C99.4987 21.2188 99.1133 21.1562 98.7383 21.1562C98.1341 21.1562 97.5195 21.2292 96.8945 21.375C96.2904 21.5208 95.7383 21.75 95.2383 22.0625C94.7591 22.375 94.3633 22.7708 94.0508 23.25C93.7591 23.7292 93.6133 24.2917 93.6133 24.9375Z" fill="white"/>
<defs>
<clipPath id="clip0_8_70">
<rect width="49" height="46.0638" fill="white" transform="translate(95)"/>
</clipPath>
</defs>
</svg>
